<svg width="240" height="240" viewBox="0 0 240 240" fill="none" xmlns="http://www.w3.org/2000/svg">
<!-- Template-safe vector adaptation of https://github.com/ollama/ollama/blob/main/docs/images/logo.png -->
<path d="M178.46 4.35561C184.336 17.4008 185.708 34.691 181.282 48.9317C173.371 46.2895 166.112 44.2644 157.689 43.6987C157.683 31.339 159.916 19.3337 165.062 8.06984C167.606 2.50202 174.409 -4.63787 178.46 4.35561Z" fill="white"/>
<path d="M71.0775 3.03524C78.6788 14.9096 81.1013 29.9224 81.5422 43.7049C76.2668 44.1323 73.3195 44.3426 68.1429 45.475C64.2552 46.5137 61.5822 47.5774 57.9607 49.1793C53.4513 36.0203 54.6527 19.0144 59.7519 6.05038C61.7817 0.89087 67.2534 -2.93785 71.0775 3.03524Z" fill="white"/>
<path fill-rule="evenodd" clip-rule="evenodd" d="M118.468 34.9089C133.047 34.4971 143.909 40.9545 152.475 52.3242C155.36 52.3174 158.114 52.3188 161.007 52.5342C192.594 54.8898 214.339 87.9185 202.9 117.705C201.118 122.346 199.259 125.395 196.558 129.482C199.777 134.285 202.183 139.586 203.679 145.17C207.471 158.991 206.629 172.355 201.064 185.655C200.363 187.326 198.819 189.956 197.538 192.138C197.083 192.912 196.662 193.629 196.323 194.228C196.657 194.972 197.06 195.734 197.461 196.493L197.461 196.494C197.746 197.034 198.031 197.572 198.29 198.103C204.271 210.316 207.346 226.522 204.209 240L34.8319 239.986C31.6644 223.366 34.9109 209.011 42.7579 194.305C41.608 192.023 40.6474 190.29 39.815 188.789C37.4308 184.489 36.0988 182.087 34.3839 174.119C30.992 158.767 33.8942 142.702 42.4428 129.502C36.7922 120.354 33.0087 112.387 33.0115 101.22C33.1229 88.2256 38.3544 75.798 47.5731 66.6286C58.8619 55.3546 71.1566 52.3046 86.5175 52.3527C95.0381 41.0683 104.069 35.6943 118.468 34.9089ZM178.913 103.272C180.049 108.491 176.742 113.643 171.523 114.795C166.275 115.956 161.084 112.633 159.942 107.387C158.802 102.142 162.146 96.9687 167.4 95.8482C172.631 94.7331 177.777 98.0525 178.913 103.272ZM78.993 103.057C80.2302 108.169 77.1438 113.332 72.0506 114.668C68.6649 115.557 65.0631 114.546 62.6329 112.031C60.2028 109.514 59.324 105.883 60.3354 102.535C61.3467 99.188 64.09 96.6478 67.5082 95.8941C72.6505 94.7597 77.7561 97.9438 78.993 103.057ZM147.427 104.182C140.194 98.1187 130.52 94.6173 120.041 94.6173C109.572 94.6173 99.6973 98.1075 92.2183 104.115C84.8512 110.032 80.3951 117.975 80.3951 125.884C80.3951 133.882 84.269 141.265 91.177 146.523C98.1411 151.836 107.792 154.734 119.089 154.734C129.748 154.734 139.052 152.698 145.993 148.503C154.133 143.558 158.679 135.817 158.679 125.884C158.679 117.997 154.48 110.077 147.427 104.182Z" fill="white"/>
<path fill-rule="evenodd" clip-rule="evenodd" d="M120.041 104.64C112.273 104.573 104.712 107.136 98.5889 111.912C93.4275 116.051 90.5053 121.252 90.5053 125.895C90.5053 130.683 92.8565 135.168 97.3349 138.58C102.429 142.462 109.919 144.711 119.089 144.711C128.035 144.711 135.581 143.066 140.72 139.945C145.904 136.813 148.557 132.271 148.557 125.884C148.557 121.152 145.803 115.928 140.91 111.833C135.491 107.303 128.147 104.64 120.041 104.64ZM127.497 118.221L127.453 118.176C126.793 117.385 125.85 116.883 124.826 116.777C123.801 116.67 122.775 116.967 121.966 117.606L119.503 119.552L117.096 117.628C116.285 116.976 115.249 116.67 114.213 116.777C113.178 116.884 112.226 117.395 111.565 118.198C111.241 118.596 110.999 119.053 110.853 119.544C110.707 120.036 110.659 120.551 110.714 121.06C110.768 121.57 110.922 122.064 111.168 122.513C111.414 122.963 111.747 123.359 112.147 123.68L115.182 126.119V131.264C115.188 132.375 115.634 133.438 116.423 134.22C117.212 135.002 118.28 135.44 119.391 135.437C120.503 135.44 121.57 135.002 122.36 134.22C123.149 133.438 123.595 132.375 123.601 131.264V126.275L126.87 123.702C128.561 122.36 128.841 119.91 127.497 118.221Z" fill="white"/>
</svg>
