<svg width="100" height="100" viewBox="0 0 100 100" fill="none" xmlns="http://www.w3.org/2000/svg">
  <path d="M38 38H27C20.925 38 16 33.075 16 27C16 20.925 20.925 16 27 16C33.075 16 38 20.925 38 27V73C38 79.075 33.075 84 27 84C20.925 84 16 79.075 16 73C16 66.925 20.925 62 27 62H73C79.075 62 84 66.925 84 73C84 79.075 79.075 84 73 84C66.925 84 62 79.075 62 73V27C62 20.925 66.925 16 73 16C79.075 16 84 20.925 84 27C84 33.075 79.075 38 73 38H38V62" stroke="white" stroke-width="9" stroke-linecap="round" stroke-linejoin="round"/>
</svg>
