<svg xmlns="http://www.w3.org/2000/svg" viewBox="0 0 512 512">
  <g transform="translate(0 512) scale(0.1 -0.1)" fill="currentColor" stroke="none">
    <path d="M1010 5110 c-364 -19 -535 -83 -726 -274 -157 -157 -226 -303 -262 -550 -16 -111 -17 -252 -17 -1721 0 -1691 0 -1707 46 -1889 38 -148 129 -297 253 -414 182 -170 345 -231 671 -252 207 -13 2966 -13 3170 0 179 12 297 32 385 67 256 102 475 345 539 600 45 178 46 200 46 1888 0 1469 -1 1610 -17 1721 -36 247 -105 393 -262 550 -159 158 -317 232 -571 265 -104 14 -3011 22 -3255 9z m1746 -1000 c518 -42 1026 -285 1302 -623 195 -238 285 -474 286 -747 0 -189 -35 -335 -121 -505 -227 -450 -721 -765 -1348 -861 -161 -24 -479 -22 -649 4 l-128 21 -322 -130 c-176 -72 -383 -155 -459 -186 -134 -54 -162 -58 -173 -29 -3 8 17 173 45 367 44 314 48 357 36 385 -7 18 -23 37 -34 43 -30 17 -163 171 -217 254 -134 202 -194 401 -194 638 0 190 36 336 126 509 209 406 656 711 1206 824 206 43 415 54 644 36z"/>
  </g>
</svg>
