<svg width="100" height="100" viewBox="0 0 100 100" fill="none" xmlns="http://www.w3.org/2000/svg">
  <path d="M44.2 8.5H82.4C85.6 8.5 88.1 11.1 87.8 14.2C87.7 15.5 87.2 16.7 86.4 17.8L73.3 35.5C69.7 40.3 64.1 43.1 58.1 43.1H28.1L40.2 60.1H68.4C72.8 60.1 76.9 62.1 79.6 65.6L88.2 76.9C89.8 79.1 89.7 82.1 87.8 84.2C86.6 85.5 84.9 86.3 83.1 86.3H45.1C36.5 86.3 28.5 82.1 23.6 75L8.9 53.6C5.2 48.2 5.3 41 9.2 35.7L20.6 20.1C26.1 12.8 34.8 8.5 44.2 8.5ZM28.1 43.1H15.4C13.5 43.1 12.4 45.2 13.5 46.8L27.3 66.9C31.3 72.8 38 76.3 45.1 76.3H75L68.6 68.1C67.2 66.3 65.1 65.2 62.8 65.2H38.6C34.4 65.2 30.5 63.2 28.1 59.8L19.7 48.1C18.2 45.9 19.8 43.1 22.5 43.1H28.1Z" fill="white"/>
</svg>
